<svg xmlns="http://www.w3.org/2000/svg" xmlns:xlink="http://www.w3.org/1999/xlink" viewBox="-4 2 150 60"><defs><style>.a{clip-path:url(#b);}.b,.c{fill:#fff;}.b{font-size:30px;font-family:Muli-Bold, Muli;font-weight:700;}</style><clipPath id="b"><rect x="-4" y="2" width="150" height="60"/></clipPath></defs><g id="a" class="a"><text class="b" transform="translate(30 41)"><tspan x="0" y="0">Classify</tspan></text><g transform="translate(-1.4 11.776)"><path class="c" d="M109.435,86.272a2.179,2.179,0,0,0,1.718.917h3.478c1.339,0,2.429-1.4,2.429-3.13s-1.09-3.13-2.429-3.13h-2.472l-.728-.938a5.559,5.559,0,0,0,1.7-4.156c0-2.777-1.753-5.036-3.908-5.036-2.491,0-4.35,2.974-3.819,6.116h-2.187a2.179,2.179,0,0,0-1.718.917l-2.907,3.746a3.8,3.8,0,0,0,0,4.427,2.069,2.069,0,0,0,3.435,0l2.2-2.829h.49l-1.517,7.6-1.719-.827c-1.255-.6-2.657.221-3.125,1.838a3.451,3.451,0,0,0,1.426,4.027l4.265,2.052c1.357.653,2.861-.365,3.208-2.185l.225-1.177,4.573,5.892a2.069,2.069,0,0,0,3.435,0,3.8,3.8,0,0,0,0-4.427L108.9,87.489l.278-1.544Zm-2.262,2.479,6.955,8.962a.8.8,0,0,1,0,.934.436.436,0,0,1-.725,0l-5.775-7.441c-.529-.681-1.43-.353-1.608.578l-.63,3.3c-.073.385-.391.6-.677.461L100.446,93.5a.728.728,0,0,1-.3-.85c.1-.341.395-.515.66-.388l2.717,1.307c.534.256,1.121-.14,1.263-.849l2.091-10.471c.156-.78-.3-1.542-.928-1.542h-2.122a.865.865,0,0,0-.677.362l-2.476,3.191a.437.437,0,0,1-.725,0,.8.8,0,0,1,0-.934l2.907-3.746a.46.46,0,0,1,.363-.194h3.666c.793,0,1.243-1.177.759-1.988-1-1.675-.073-4.129,1.58-4.129a2.338,2.338,0,0,1,1.992,2.567,2.478,2.478,0,0,1-1.627,2.523,1.374,1.374,0,0,0-.506,2.1l2,2.582a.865.865,0,0,0,.677.362h2.868a.682.682,0,0,1,0,1.321h-3.478a.46.46,0,0,1-.363-.194l-1.475-1.9c-.531-.684-1.441-.349-1.611.594l-.787,4.38A1.485,1.485,0,0,0,107.172,88.751Z" transform="translate(-91.627 -64.765)"/><path class="c" d="M406.288,191.155a.815.815,0,0,0,1.355,0,6.427,6.427,0,0,0,0-7.481.816.816,0,0,0-1.355,0,1.5,1.5,0,0,0,0,1.746,3.427,3.427,0,0,1,0,3.988A1.5,1.5,0,0,0,406.288,191.155Z" transform="translate(-380.072 -168.019)"/><path class="c" d="M444,172.113a9.633,9.633,0,0,0,0-11.233.815.815,0,0,0-1.355,0,1.5,1.5,0,0,0,0,1.746,6.638,6.638,0,0,1,0,7.741,1.5,1.5,0,0,0,0,1.746A.816.816,0,0,0,444,172.113Z" transform="translate(-414.109 -147.1)"/><path class="c" d="M48.367,183.674a.815.815,0,0,0-1.355,0,6.415,6.415,0,0,0,0,7.481.816.816,0,0,0,1.355,0,1.5,1.5,0,0,0,0-1.746,3.42,3.42,0,0,1,0-3.988A1.5,1.5,0,0,0,48.367,183.674Z" transform="translate(-42.883 -168.018)"/><path class="c" d="M3.162,172.113a1.5,1.5,0,0,0,0-1.746,6.638,6.638,0,0,1,0-7.741,1.5,1.5,0,0,0,0-1.746.815.815,0,0,0-1.355,0,9.633,9.633,0,0,0,0,11.233A.815.815,0,0,0,3.162,172.113Z" transform="translate(0 -147.1)"/><path class="c" d="M1.646,9.06A1.123,1.123,0,0,0,2.6,7.825V2.693H6.587a1.123,1.123,0,0,0,.958-1.235A1.123,1.123,0,0,0,6.587.224H1.646A1.123,1.123,0,0,0,.688,1.459V7.825A1.123,1.123,0,0,0,1.646,9.06Z" transform="translate(-0.644 0)"/><path class="c" d="M389.183,2.693h3.983V7.825a.989.989,0,1,0,1.916,0V1.459a1.123,1.123,0,0,0-.958-1.235h-4.941a1.123,1.123,0,0,0-.958,1.235A1.123,1.123,0,0,0,389.183,2.693Z" transform="translate(-363.426)"/><path class="c" d="M394.124,388.69a1.123,1.123,0,0,0-.958,1.235v5.132h-3.983a1.275,1.275,0,0,0,0,2.469h4.941a1.123,1.123,0,0,0,.958-1.235v-6.367A1.123,1.123,0,0,0,394.124,388.69Z" transform="translate(-363.426 -356.49)"/><path class="c" d="M6.587,395.057H2.6v-5.132a1.123,1.123,0,0,0-.958-1.235,1.123,1.123,0,0,0-.958,1.235v6.367a1.123,1.123,0,0,0,.958,1.235H6.587a1.275,1.275,0,0,0,0-2.469Z" transform="translate(-0.644 -356.49)"/></g></g></svg>