<svg xmlns="http://www.w3.org/2000/svg" xmlns:xlink="http://www.w3.org/1999/xlink" viewBox="0 0 60 60"><defs><style>.a{clip-path:url(#b);}.b{fill:#fff;}</style><clipPath id="b"><rect width="60" height="60"/></clipPath></defs><g id="a" class="a"><g transform="translate(2.1 -5.365)"><path class="b" d="M54.017,20.681A29.785,29.785,0,0,0,43.481,9.489,27.053,27.053,0,0,0,28.95,5.365,27.056,27.056,0,0,0,14.418,9.489,29.782,29.782,0,0,0,3.883,20.681,31.532,31.532,0,0,0,0,36.116,31.154,31.154,0,0,0,5.522,54.195,28.528,28.528,0,0,0,19.79,65.306a1.478,1.478,0,0,0,2-1.481q0-.12-.019-2.162T21.749,58.1l-.867.159a10.423,10.423,0,0,1-2.092.14,15.037,15.037,0,0,1-2.62-.28,5.694,5.694,0,0,1-2.526-1.2,5.082,5.082,0,0,1-1.658-2.462l-.377-.921a10.135,10.135,0,0,0-1.187-2.042,4.638,4.638,0,0,0-1.64-1.521l-.264-.2a2.839,2.839,0,0,1-.49-.481,2.218,2.218,0,0,1-.339-.561.346.346,0,0,1,.188-.461,2.317,2.317,0,0,1,1.093-.179l.754.12a5.368,5.368,0,0,1,1.866.961,6.325,6.325,0,0,1,1.828,2.082,6.934,6.934,0,0,0,2.092,2.5,4.264,4.264,0,0,0,2.469.861,10.11,10.11,0,0,0,2.149-.2,7.2,7.2,0,0,0,1.7-.6,6.653,6.653,0,0,1,1.847-4.125,24.444,24.444,0,0,1-3.864-.721,14.9,14.9,0,0,1-3.543-1.562,10.32,10.32,0,0,1-3.035-2.682,13.214,13.214,0,0,1-1.979-4.2,21.155,21.155,0,0,1-.773-6.006,12.094,12.094,0,0,1,2.978-8.249,11.384,11.384,0,0,1,.264-8.168,5.006,5.006,0,0,1,3.242.54,22.077,22.077,0,0,1,3.148,1.542q1,.64,1.6,1.081a25.687,25.687,0,0,1,14.476,0L37.62,20.3a19.8,19.8,0,0,1,3.467-1.762,4.677,4.677,0,0,1,3.054-.44,11.273,11.273,0,0,1,.3,8.168,12.1,12.1,0,0,1,2.978,8.249,21.393,21.393,0,0,1-.773,6.026,12.693,12.693,0,0,1-2,4.2A10.7,10.7,0,0,1,41.6,47.407a14.924,14.924,0,0,1-3.544,1.562,24.419,24.419,0,0,1-3.864.722q1.959,1.8,1.96,5.685v8.448a1.645,1.645,0,0,0,.472,1.2,1.563,1.563,0,0,0,1.489.28A28.524,28.524,0,0,0,52.378,54.194,31.16,31.16,0,0,0,57.9,36.115,31.558,31.558,0,0,0,54.017,20.681Z" transform="translate(0 0)"/></g></g></svg>